PathFileType	4	(X/Y/Z)	/tmp/tmpfbxcaoho/Subject7/MarkerData/Take_2_10hz_segment_0.trc
DataRate	CameraRate	NumFrames	NumMarkers	Units	OrigDataRate	OrigDataStartFrame	OrigNumFrames
50.0148	50.0148	11	35	m	50.0148	500	2000
Frame#	Time	C7			CLAV			LANK			LASI			LBHD			LELB			LFHD			LFIN			LFRM			LHEE			LKNE			LSHO			LTHI			LTIB			LTOE			LUPA			LWRA			LWRB			RASI			RBAK			RBHD			RELB			RFHD			RFIN			RFRM			RHEE			RKNE			RSHO			RTHI			RTOE			RUPA			RWRA			RWRB			STRN			T10		
		X1	Y1	Z1	X2	Y2	Z2	X3	Y3	Z3	X4	Y4	Z4	X5	Y5	Z5	X6	Y6	Z6	X7	Y7	Z7	X8	Y8	Z8	X9	Y9	Z9	X10	Y10	Z10	X11	Y11	Z11	X12	Y12	Z12	X13	Y13	Z13	X14	Y14	Z14	X15	Y15	Z15	X16	Y16	Z16	X17	Y17	Z17	X18	Y18	Z18	X19	Y19	Z19	X20	Y20	Z20	X21	Y21	Z21	X22	Y22	Z22	X23	Y23	Z23	X24	Y24	Z24	X25	Y25	Z25	X26	Y26	Z26	X27	Y27	Z27	X28	Y28	Z28	X29	Y29	Z29	X30	Y30	Z30	X31	Y31	Z31	X32	Y32	Z32	X33	Y33	Z33	X34	Y34	Z34	X35	Y35	Z35

501	10.017	0.464442	1.3287	0.155178	0.339415	1.23899	0.169082	0.208976	0.113962	0.562101	0.350987	0.836068	0.315878	0.452028	1.50323	0.217248	0.245031	1.14104	0.505554	0.263859	1.48387	0.218157	-0.0748322	1.26871	0.617005	0.100725	1.17029	0.567211	0.240125	0.0573135	0.473779	0.254618	0.507167	0.509389	0.424017	1.29245	0.343457	0.303722	0.665577	0.445097	0.257331	0.306722	0.547364	0.0312254	0.0356203	0.643276	0.34598	1.18942	0.438486	0.00336715	1.28157	0.563176	-0.0302674	1.2086	0.594329	0.349198	0.828782	0.045183	0.538901	1.18383	0.0699657	0.441061	1.49616	0.113807	0.286155	0.993877	-0.107685	0.271012	1.48394	0.11499	0.133741	0.773168	0.126034	0.221175	0.872992	-0.0472301	0.544344	0.0337822	0.26488	0.277404	0.395636	0.0583225	0.370931	1.28169	-0.0021864	0.310685	0.614601	0.018128	0.303759	0.0369846	0.148565	0.317666	1.09766	-0.0829813	0.157485	0.86074	0.0926536	0.173413	0.780994	0.0613065	0.293997	1.08035	0.180358	0.545901	0.976627	0.176764
502	10.037	0.47132	1.33005	0.16044	0.34596	1.24003	0.165007	0.208805	0.115577	0.563429	0.353385	0.837221	0.312936	0.448067	1.50337	0.227519	0.217735	1.14704	0.478801	0.261782	1.48247	0.201394	-0.112917	1.28618	0.53404	0.065641	1.18115	0.516405	0.242102	0.0580912	0.476495	0.253867	0.508517	0.504221	0.419579	1.2937	0.343074	0.301684	0.666296	0.436955	0.257153	0.308201	0.546054	0.0305281	0.0356788	0.642508	0.329593	1.19328	0.427057	-0.0245483	1.29677	0.497292	-0.0672696	1.22452	0.519678	0.357782	0.82989	0.0423667	0.551025	1.18486	0.0783726	0.45226	1.49853	0.123877	0.317104	1.00222	-0.134731	0.283574	1.48439	0.100233	0.158035	0.747858	0.0578313	0.252588	0.872864	-0.0929261	0.544953	0.0333016	0.263975	0.282095	0.398165	0.0579603	0.3874	1.28335	-0.00379582	0.317719	0.616471	0.017188	0.303805	0.0366732	0.148694	0.343106	1.10387	-0.0993781	0.181606	0.839931	0.0403903	0.200563	0.766122	-0.00275281	0.300263	1.08146	0.173878	0.552359	0.977349	0.182689
503	10.057	0.47708	1.33172	0.165012	0.351669	1.24186	0.161613	0.208067	0.117752	0.563708	0.355962	0.838576	0.310908	0.443606	1.50328	0.235127	0.195055	1.15393	0.449562	0.262785	1.48267	0.184531	-0.136133	1.30468	0.444523	0.0391477	1.19298	0.461262	0.242464	0.0598135	0.477524	0.252558	0.510125	0.499055	0.414992	1.29568	0.342121	0.299875	0.667249	0.42993	0.256624	0.310011	0.5439	0.0300188	0.0356223	0.642163	0.315237	1.19802	0.414318	-0.0415586	1.31199	0.426562	-0.0908654	1.2412	0.439625	0.365915	0.83131	0.0405351	0.560973	1.18601	0.0864096	0.461818	1.50057	0.133291	0.346053	1.01184	-0.156713	0.297502	1.48629	0.0873542	0.180977	0.728673	-0.0142546	0.2835	0.876305	-0.135228	0.545204	0.0330646	0.263592	0.287395	0.400858	0.0567035	0.402136	1.28549	-0.00464386	0.324	0.619113	0.0153346	0.303885	0.0363871	0.148547	0.366341	1.11097	-0.112698	0.202114	0.823122	-0.0157848	0.227556	0.756864	-0.0675095	0.305802	1.08314	0.168629	0.556989	0.97858	0.18798
504	10.077	0.481297	1.33398	0.169262	0.356061	1.24453	0.158405	0.206505	0.120664	0.563363	0.357923	0.840378	0.30936	0.43916	1.50343	0.240742	0.17596	1.16167	0.419784	0.26584	1.48511	0.168987	-0.143149	1.32494	0.352461	0.0210295	1.20612	0.404486	0.241722	0.0627217	0.477755	0.250129	0.512209	0.493813	0.409037	1.29863	0.340556	0.297971	0.668881	0.424562	0.255131	0.312598	0.541379	0.0293585	0.0355741	0.642039	0.301663	1.2038	0.400952	-0.0464884	1.32798	0.354171	-0.100155	1.25985	0.358207	0.373731	0.833288	0.039457	0.568976	1.18791	0.094578	0.469782	1.50243	0.1422	0.372195	1.02152	-0.173196	0.312001	1.4901	0.0766751	0.201869	0.718564	-0.0883869	0.31215	0.883773	-0.173899	0.545285	0.0328446	0.263393	0.293432	0.403825	0.0553927	0.415458	1.28815	-0.00486589	0.330405	0.622151	0.0136255	0.304008	0.0362215	0.148386	0.387697	1.11807	-0.122442	0.218185	0.81278	-0.0748886	0.252704	0.755419	-0.131602	0.309927	1.08558	0.163515	0.56027	0.980763	0.193584
505	10.097	0.483805	1.33657	0.173321	0.359403	1.24723	0.155272	0.203925	0.12483	0.563681	0.358971	0.842629	0.307819	0.434598	1.50365	0.245534	0.160337	1.16912	0.390616	0.269943	1.48939	0.155398	-0.133243	1.34484	0.263006	0.0115765	1.21927	0.348868	0.240804	0.0671181	0.479187	0.246356	0.515479	0.489255	0.402091	1.30193	0.338452	0.29549	0.671465	0.420295	0.252122	0.316561	0.539669	0.0276884	0.0357663	0.641817	0.289177	1.20948	0.387277	-0.0388658	1.34276	0.284013	-0.0955678	1.27803	0.279361	0.380878	0.835794	0.038313	0.575277	1.19076	0.10266	0.47608	1.50399	0.15113	0.394182	1.02971	-0.184096	0.325829	1.49523	0.068454	0.218776	0.718897	-0.160373	0.337062	0.894327	-0.206966	0.545275	0.0326262	0.263254	0.299609	0.406924	0.0546766	0.426883	1.29086	-0.00433081	0.337264	0.62525	0.0124281	0.304109	0.0361553	0.148342	0.406191	1.12417	-0.12851	0.229171	0.811119	-0.134145	0.274411	0.762149	-0.191654	0.313278	1.08799	0.158683	0.562783	0.983704	0.199316
506	10.117	0.4852	1.33924	0.176855	0.362428	1.24946	0.152162	0.200376	0.13114	0.565151	0.359842	0.845265	0.30653	0.429677	1.50357	0.249906	0.148943	1.17462	0.363226	0.2748	1.49455	0.143258	-0.107626	1.36029	0.181371	0.0112151	1.22986	0.296806	0.240188	0.0740644	0.48243	0.240924	0.520836	0.485606	0.395288	1.30492	0.336032	0.292372	0.675511	0.416788	0.247351	0.322799	0.539102	0.0249058	0.0362492	0.641012	0.278834	1.21368	0.373823	-0.018963	1.3529	0.219314	-0.0784936	1.29213	0.207527	0.387525	0.838285	0.0373873	0.580265	1.19424	0.10984	0.480895	1.50518	0.160278	0.410723	1.0363	-0.190703	0.338906	1.50095	0.0623907	0.231008	0.729945	-0.227036	0.356433	0.907262	-0.233939	0.545208	0.0324978	0.26319	0.305351	0.409975	0.0546726	0.436282	1.2934	-0.00318578	0.344026	0.628131	0.0120214	0.304164	0.0361182	0.148375	0.420503	1.12931	-0.132294	0.235123	0.819698	-0.191559	0.291459	0.775569	-0.244247	0.316649	1.08985	0.154509	0.564925	0.987011	0.204463
507	10.137	0.486505	1.34214	0.179685	0.365696	1.25158	0.149384	0.198336	0.139199	0.565595	0.36123	0.848331	0.306068	0.424808	1.50357	0.253226	0.142408	1.17721	0.338825	0.280477	1.49992	0.13218	-0.0707087	1.36801	0.112336	0.0191171	1.23577	0.250869	0.242434	0.0833767	0.484936	0.233576	0.528067	0.481893	0.389659	1.30779	0.333593	0.288646	0.681063	0.413904	0.241962	0.331306	0.538305	0.0242368	0.0366863	0.637307	0.271559	1.21611	0.361351	0.0109048	1.356	0.163403	-0.0521008	1.29982	0.146918	0.393462	0.840831	0.03717	0.584397	1.19796	0.115458	0.484375	1.50617	0.168642	0.421521	1.04355	-0.195411	0.351717	1.5066	0.0582086	0.238087	0.753882	-0.2898	0.369514	0.923336	-0.256785	0.545135	0.0324032	0.26324	0.310363	0.413044	0.0559762	0.444004	1.2964	-0.00196375	0.349792	0.630983	0.0128552	0.304182	0.0361301	0.14845	0.430468	1.1353	-0.135667	0.237307	0.840637	-0.247321	0.301702	0.796408	-0.289952	0.320569	1.09171	0.15112	0.567185	0.990701	0.208584
508	10.157	0.487996	1.3451	0.181709	0.368919	1.25402	0.14725	0.202883	0.147188	0.560501	0.363274	0.851524	0.30669	0.420848	1.50389	0.255058	0.140174	1.17683	0.318368	0.287112	1.50543	0.122167	-0.0278922	1.36745	0.0581302	0.0326793	1.23648	0.213351	0.251772	0.0935066	0.481225	0.224791	0.536361	0.477824	0.385422	1.31088	0.331194	0.28469	0.687488	0.411808	0.238825	0.340851	0.534487	0.0317552	0.0366466	0.627595	0.267424	1.21729	0.350756	0.0468402	1.35137	0.118398	-0.020312	1.30075	0.0989032	0.397788	0.843687	0.0378523	0.588207	1.20149	0.119553	0.48734	1.5069	0.175558	0.428326	1.05334	-0.200826	0.364831	1.51193	0.0556072	0.240451	0.79228	-0.350148	0.377013	0.943183	-0.277206	0.54511	0.0324912	0.263379	0.314407	0.416038	0.0582987	0.450906	1.3	-0.00106118	0.353888	0.633892	0.0146189	0.304163	0.0361728	0.148534	0.438214	1.14319	-0.139157	0.238035	0.876075	-0.302133	0.30421	0.82583	-0.33108	0.324664	1.094	0.148341	0.569355	0.994344	0.2117
509	10.177	0.489466	1.34771	0.183052	0.372043	1.25646	0.145235	0.214581	0.154721	0.548823	0.365233	0.854395	0.307536	0.418037	1.50411	0.255726	0.1408	1.17333	0.301868	0.294321	1.51077	0.113436	0.0167173	1.35964	0.0178258	0.0490841	1.23222	0.1843	0.267139	0.104356	0.469451	0.215591	0.544951	0.473781	0.382073	1.31381	0.328835	0.280848	0.694073	0.410403	0.238675	0.350524	0.526745	0.0485012	0.0361735	0.613003	0.265498	1.21707	0.342124	0.0848018	1.3393	0.0843023	0.0131143	1.29547	0.0625314	0.400721	0.846673	0.0386552	0.591996	1.20443	0.122511	0.490208	1.5072	0.181119	0.431754	1.06675	-0.207767	0.377148	1.51695	0.0534598	0.240954	0.843215	-0.406152	0.378866	0.967189	-0.295734	0.545139	0.0326331	0.263419	0.318056	0.418653	0.0599849	0.457869	1.30379	-0.000271057	0.357293	0.636521	0.0160126	0.304183	0.0361921	0.148568	0.445076	1.15315	-0.142029	0.239435	0.924346	-0.353173	0.300094	0.86345	-0.367492	0.328304	1.096	0.145649	0.571244	0.997481	0.214055
510	10.197	0.491087	1.34937	0.18392	0.375331	1.25811	0.143053	0.230059	0.163723	0.533733	0.36663	0.856516	0.307573	0.416306	1.50363	0.255574	0.142907	1.16781	0.288898	0.301437	1.51494	0.10634	0.0599536	1.34595	-0.0116648	0.0660846	1.22447	0.162229	0.285551	0.118117	0.453147	0.205594	0.553814	0.469233	0.379566	1.31567	0.326572	0.276452	0.700545	0.408229	0.239429	0.361125	0.516718	0.0712824	0.0354957	0.595539	0.26486	1.21535	0.335036	0.121529	1.32112	0.0587084	0.0451325	1.28536	0.0355785	0.4038	0.848842	0.0387473	0.595677	1.20595	0.124662	0.493018	1.50678	0.18538	0.432319	1.08445	-0.216079	0.387872	1.521	0.0513685	0.241366	0.903531	-0.454822	0.375937	0.995803	-0.313016	0.545158	0.0327741	0.263442	0.321418	0.420418	0.0603638	0.465273	1.30732	0.000833208	0.361011	0.638181	0.0163743	0.304338	0.0361829	0.148531	0.450465	1.16522	-0.144666	0.242074	0.980878	-0.396001	0.292007	0.908474	-0.39884	0.331428	1.09729	0.142148	0.573088	0.999531	0.215945
511	10.217	0.493129	1.34995	0.184094	0.378841	1.25869	0.140844	0.248481	0.175944	0.515391	0.367943	0.857731	0.306896	0.415822	1.50247	0.254439	0.146114	1.16191	0.278291	0.308078	1.5176	0.100805	0.09938	1.32776	-0.0341124	0.0827927	1.21488	0.144808	0.306988	0.137212	0.432761	0.194572	0.563054	0.463403	0.378294	1.3164	0.324308	0.271475	0.706939	0.404792	0.240708	0.373452	0.504493	0.100218	0.0346065	0.573298	0.265397	1.2129	0.328912	0.155071	1.29845	0.0382111	0.0743755	1.27185	0.0152631	0.407274	0.849743	0.0382516	0.598988	1.20575	0.125814	0.495976	1.50562	0.18796	0.43171	1.10553	-0.225447	0.39698	1.52361	0.0489323	0.240134	0.967592	-0.491978	0.371501	1.02978	-0.332547	0.545179	0.0327945	0.263451	0.323986	0.421309	0.0600671	0.472655	1.31023	0.0022833	0.36441	0.638856	0.0161638	0.304508	0.0361868	0.148502	0.4542	1.17897	-0.148321	0.246335	1.04061	-0.428723	0.283245	0.960921	-0.431138	0.334643	1.09815	0.139034	0.575122	1.00034	0.217207
